<?xml version="1.0" encoding="UTF-8" standalone="no"?><!DOCTYPE svg PUBLIC "-//W3C//DTD SVG 1.1//EN" "http://www.w3.org/Graphics/SVG/1.1/DTD/svg11.dtd"><svg width="100%" height="100%" viewBox="0 0 2112 1152" version="1.1" xmlns="http://www.w3.org/2000/svg" xmlns:xlink="http://www.w3.org/1999/xlink" xml:space="preserve" xmlns:serif="http://www.serif.com/" style="fill-rule:evenodd;clip-rule:evenodd;stroke-linejoin:round;stroke-miterlimit:2;"><g id="ScanQR"><g><path id="Q-bg" serif:id="Q bg" d="M1409.514,402.074c95.993,0 173.926,77.934 173.926,173.926c0,95.993 -77.934,173.926 -173.926,173.926c-95.993,0 -173.926,-77.934 -173.926,-173.926c0,-95.993 77.934,-173.926 173.926,-173.926Zm23.419,182.48c2.162,-1.503 5.27,-5.852 11.287,-0.373c0.698,0.635 1.125,1.025 8.313,8.374c8.69,8.885 35.181,39.236 37.801,41.604c5.907,5.338 8.768,2.227 13.086,-5.688c22.299,-40.88 12.24,-75.027 10.335,-83.235c-0.646,-2.783 -3.873,-16.682 -14.409,-32.68c-42.243,-64.141 -117.483,-46.708 -135.914,-37.671c-18.526,9.084 -27.764,15.702 -41.742,34.732c-31.483,42.864 -30.109,127.564 36.026,164.115c24.028,13.279 56.793,13.389 72.272,10.005c14.664,-3.205 15.908,-2.915 16.153,-6.018c0.291,-3.682 -0.647,-3.445 -3.163,-6.145c-22.04,-23.648 -21.777,-23.867 -23.73,-25.886c-23.125,-23.913 -23.023,-25.558 -20.75,-29.783c0.296,-0.549 0.981,-0.82 1.276,-1.369c15.726,-15.959 16.631,-14.905 33.159,-29.98Z" style="fill:#0783ec;"/><path d="M1544.818,685.161c0,0 -3.324,5.691 1.403,11.92c5.199,6.851 44.37,48.957 44.37,48.957c0,0 4.714,2.596 -3.562,10.599c-8.276,8.003 -31.04,27.904 -31.04,27.904c0,0 -4.503,5.72 -10.202,0.338c-5.699,-5.382 -45.774,-49.106 -45.774,-49.106c0,0 -4.626,-7.046 -13.333,-4.003c-7.863,3.902 -3.695,-9.241 -3.695,-9.241l17.917,-32.574l24.037,-9.718l18.041,-3.678l1.838,8.601Z" style="fill:#0783ec;"/></g><g><path d="M1832.492,425.797c8.353,5.157 18.016,12.757 27.667,23.902c12.602,14.552 36.579,59.29 16.044,108.68c-3.236,7.782 -5.015,13.231 -15.624,26.926c-6.177,7.973 -19.062,19.347 -30.323,25.654c-3.307,1.852 -3.874,1.037 -6.303,3.958c-4.152,4.993 5.778,16.095 16.472,36.544c1.582,3.025 31.078,53.221 35.448,60.15c0.945,1.499 6.414,10.171 11.008,19.224c4.476,8.821 0.003,10.08 -9.889,10.297c-0.999,0.022 -43.505,0.317 -49.655,-0.456c-11.171,-1.404 -12.786,-9.646 -24.099,-29.239c-1.836,-3.179 -21.8,-37.755 -23.076,-39.661c-8.784,-13.125 -21.418,-41.948 -28.53,-44.614c-2.763,-1.036 -3.283,-1.231 -36.853,-1.358c-10.775,-0.041 -14.815,-1.743 -15.255,9.042c-0.295,7.233 -0.148,7.227 0.116,89.363c0.04,12.531 1.276,16.884 -11.304,17.238c-3.962,0.111 -41.538,1.166 -49.531,-1.157c-6.403,-1.861 -5.639,-4.259 -5.647,-49.192c-0.046,-253.012 -0.481,-274.216 0.49,-277.524c0.043,-0.148 0.132,-0.274 0.235,-0.394c1.708,-3.903 7.313,-3.801 7.313,-3.801l125.874,0.503c26.102,-0.232 48.046,4.894 65.428,15.899l-0.004,0.017Zm-41.104,137.037c1.307,-0.861 5.754,-3.669 6.256,-3.986c11.955,-7.551 23.536,-28.795 17.618,-53.401c-8.8,-36.587 -43.142,-35.729 -44.225,-35.796c-25.652,-1.582 -57.836,-0.336 -62.861,-0.142c-4.733,0.183 -7.596,0.833 -8.71,6.562c-0.279,1.435 -0.051,77.965 0.164,82.564c0.421,9.036 2.812,9.087 11.834,9.104c67.936,0.129 68.48,0.748 79.924,-4.906Z" style="fill:#047bf1;"/></g><g><path d="M754.964,493.916c12.379,-0.22 45.032,-3.425 73.387,17.543c10.493,7.759 9.315,8.947 10.228,9.599c0.321,0.229 2.95,2.108 4.903,0.523c2.974,-2.414 -2.913,-19.216 4.338,-21.758c3.252,-1.14 48.198,-1.367 49.416,-1.318c10.06,0.41 9.96,4.381 9.838,17.16c-0.747,77.995 0.11,77.943 -0.211,139.02c-0.417,79.316 1.572,80.148 -1.825,83.836c-2.397,2.602 -6.097,2.596 -11.135,2.622c-3.443,0.017 -33.178,0.168 -43.032,-0.381c-9.489,-0.528 -7.12,-9.238 -6.934,-16.534c0.105,-4.101 1.056,-5.902 -3.026,-5.808c-2.688,0.062 -2.715,0.826 -3.665,1.809c-0.671,0.695 -7.668,7.314 -12.815,10.642c-4.482,2.898 -21.533,16.083 -56.311,16.265c-55.222,0.289 -82.861,-30.832 -91.426,-40.592c-5.735,-6.535 -16.687,-22.559 -21.092,-35.315c-3.201,-9.272 -19.203,-50.42 -0.01,-102.598c9.12,-24.794 29.973,-50.376 59.163,-63.786c20.212,-9.286 25.337,-9.354 40.207,-10.93Zm61.917,182.697c45.781,-36.834 23.037,-98.436 4.124,-111.191c-6.348,-4.281 -6.186,-4.494 -7.438,-5.229c-29.21,-17.15 -57.437,-6.825 -62.12,-5.112c-42.798,15.654 -44.146,62.38 -40.008,79.852c9.54,40.285 34.665,46.995 40.347,48.885c32.303,10.747 52.714,0.036 65.095,-7.204Z" style="fill:#2f3641;"/></g><path d="M272.181,675.389c5.673,-4.285 12.122,-8.132 13.917,-20.529c4.594,-31.729 -22.385,-39.461 -54.401,-49.219c-35.8,-10.91 -75.626,-18.701 -101.783,-47.501c-20.458,-22.524 -20.895,-58.147 -17.752,-72.388c6.207,-28.121 15.857,-48.348 49.558,-67.345c29.99,-16.906 105.896,-28.105 156.403,17.635c2.081,1.885 14.748,13.356 22.477,26.953c7.641,13.442 -1.685,13.171 -39.985,38.205c-12.827,8.384 -12.531,-1.52 -25.403,-15.573c-31.165,-34.025 -94.051,-24.304 -97.432,10.055c-1.643,16.699 3.513,30.25 41.166,42.291c2.388,0.764 27.462,8.782 29.878,9.444c56.381,15.448 102.442,32.224 105.75,94.021c3.264,60.981 -43.826,100.375 -102.948,104.581c-54.449,3.874 -73.802,-5.892 -86.434,-10.458c-3.135,-1.133 -19.134,-6.916 -35.641,-21.596c-12.652,-11.252 -24.101,-28.268 -29.304,-39.761c-4.709,-10.401 3.103,-12.415 11.844,-17.394c1.438,-0.819 33.638,-19.811 37.418,-20.448c9.206,-1.553 9.3,14.764 25.51,28.967c15.396,13.489 30.619,16.144 33.573,16.66c32.48,5.666 49.459,2.076 63.591,-6.601Z" style="fill:#3e4651;"/><path d="M1085.973,493.92c5.26,-0.111 50.057,-4.765 78.646,22.473c6.209,5.916 11.236,13.567 12.077,14.846c19.747,30.056 16.773,64.334 16.697,96.979c-0.249,107.289 1.692,108.624 -2.302,111.54c-1.857,1.356 -11.516,1.355 -12.524,1.355c-35.569,-0.005 -46.08,1.066 -48.066,-4.336c-1.483,-4.034 -0.266,-106.813 -0.78,-135.07c-0.447,-24.578 -13.376,-49.978 -40.634,-51.635c-43.007,-2.615 -53.06,19.269 -58.437,32.243c-4.779,11.53 -4.652,11.935 -4.27,131.951c0.069,21.764 1.386,26.248 -9.994,26.733c-5.686,0.242 -42.774,0.181 -43.042,0.174c-10.407,-0.252 -10.114,-4.012 -10.108,-13.666c0.008,-12.446 0.081,-131.049 0.276,-155.571c0.486,-61.039 -2.269,-69.555 3.457,-72.307c5.615,-2.699 42.425,-0.935 46.111,-0.759c8.349,0.4 12.1,1.61 12.288,10.222c0.05,2.285 -0.222,4.584 0.014,6.857c0.648,6.247 3.975,5.18 8.251,0.644c3.867,-4.101 8.398,-7.064 9.196,-7.586c21.983,-14.376 34.42,-14.017 43.147,-15.089Z" style="fill:#28303a;"/><path d="M385.56,618.289c1.483,-27.259 6.028,-45.087 18.375,-66.268c6.142,-10.537 17.048,-22.752 24.191,-28.558c39.051,-31.744 76.904,-31.349 105.149,-29c5.349,0.445 34.254,2.848 62.159,25.242c0.157,0.126 30.63,23.943 23.078,35.209c-1.472,2.196 -11.622,8.614 -15.742,10.678c-6.228,3.12 -23.785,14.395 -26.86,15.752c-13.703,6.047 -11.258,-21.846 -52.771,-28.987c-16.817,-2.893 -38.259,5.675 -45.646,10.64c-35.711,24.004 -34.565,83.275 -7.004,107.944c18.595,16.644 44.626,17.082 52.555,15.862c31.809,-4.892 41.202,-23.657 44.605,-27.432c1.853,-2.056 4.771,-1.958 5.216,-1.943c2.688,0.091 19.202,9.135 20.238,9.76c8.048,4.857 25.396,12.081 27.896,17.781c3.569,8.138 -19.01,31.349 -31.42,39.519c-18.775,12.36 -43.37,27.781 -99.66,20.679c-28.668,-3.617 -53.246,-20.744 -65.124,-31.888c-38.388,-36.014 -38.982,-80.953 -39.235,-94.991Z" style="fill:#363d48;"/><path id="Shape-custom" serif:id="Shape custom" d="M1813.336,879.92c0.013,4.269 0.122,14.442 14.444,14.444l113.142,0c46.927,-10.346 69.506,-39.265 71.015,-84.255l0,-85.459c0.005,-2.004 1.061,-11.69 -9.629,-12.036l-33.702,0c-11.467,0 -10.833,12.036 -10.833,12.036l0,81.848c0.172,23.699 -12.09,36.038 -38.517,34.906l-91.477,-1.204c-14.443,-0.072 -14.541,10.132 -14.444,14.444l0,25.277Z" style="fill:#0783ec;"/><path id="Shape-custom1" serif:id="Shape custom" d="M1814.54,272.08c0.013,-4.269 0.122,-14.442 14.444,-14.444l113.142,0c46.927,10.346 69.506,39.265 71.015,84.255l0,85.459c0.005,2.004 1.061,11.69 -9.629,12.036l-33.702,0c-11.467,0 -10.833,-12.036 -10.833,-12.036l0,-81.848c0.172,-23.699 -12.09,-36.038 -38.517,-34.906l-91.477,1.204c-14.443,0.072 -14.541,-10.132 -14.444,-14.444l0,-25.277Z" style="fill:#0783ec;"/><path id="Shape-custom2" serif:id="Shape custom" d="M1336.712,272.08c-0.013,-4.269 -0.122,-14.442 -14.444,-14.444l-113.142,0c-46.927,10.346 -69.506,39.265 -71.015,84.255l0,85.459c-0.005,2.004 -1.061,11.69 9.629,12.036l33.702,0c11.467,0 10.833,-12.036 10.833,-12.036l0,-81.848c-0.172,-23.699 12.09,-36.038 38.517,-34.906l91.477,1.204c14.443,0.072 14.541,-10.132 14.444,-14.444l0,-25.277Z" style="fill:#0783ec;"/><path id="Shape-custom3" serif:id="Shape custom" d="M1152.634,794.452c-4.636,0.013 -13.278,0.122 -13.28,14.444l1.204,22.869c8.83,52.946 41.442,59.877 90.305,61.386l92.816,0c2.176,0.005 11.493,1.061 11.869,-9.629l0,-33.702c0,-10.263 -11.906,-9.552 -11.906,-9.552c-67.891,0.133 -45.452,1.064 -96.08,1.127c-25.739,0.172 -36.733,-6.072 -35.503,-32.498c0,0 1.597,-14.412 -9.776,-14.472c-12.911,-0.068 -21.102,0.028 -29.649,0.028Z" style="fill:#0783ec;"/></g></svg>